<mxfile host="Electron" agent="Mozilla/5.0 (Windows NT 10.0; Win64; x64) AppleWebKit/537.36 (KHTML, like Gecko) draw.io/24.7.17 Chrome/128.0.6613.36 Electron/32.0.1 Safari/537.36" version="24.7.17">
  <diagram name="Page-1" id="6IhHwKpRsi-OPT4KkYLc">
    <mxGraphModel dx="2029" dy="1783" grid="1" gridSize="10" guides="1" tooltips="1" connect="1" arrows="1" fold="1" page="1" pageScale="1" pageWidth="850" pageHeight="1100" math="0" shadow="0">
      <root>
        <mxCell id="0" />
        <mxCell id="1" parent="0" />
        <mxCell id="eqjqtoSwhp137VtK2heI-6" value="battery" style="whiteSpace=wrap;html=1;" vertex="1" parent="1">
          <mxGeometry x="440" y="880" width="120" height="60" as="geometry" />
        </mxCell>
        <mxCell id="eqjqtoSwhp137VtK2heI-7" value="speaker amplifier" style="whiteSpace=wrap;html=1;" vertex="1" parent="1">
          <mxGeometry x="440" y="800" width="120" height="60" as="geometry" />
        </mxCell>
        <mxCell id="eqjqtoSwhp137VtK2heI-8" value="battery management &amp;amp; charging" style="whiteSpace=wrap;html=1;" vertex="1" parent="1">
          <mxGeometry x="600" y="880" width="120" height="60" as="geometry" />
        </mxCell>
        <mxCell id="eqjqtoSwhp137VtK2heI-9" value="power up button" style="whiteSpace=wrap;html=1;" vertex="1" parent="1">
          <mxGeometry x="600" y="800" width="120" height="60" as="geometry" />
        </mxCell>
        <mxCell id="eqjqtoSwhp137VtK2heI-10" value="indicator LED" style="whiteSpace=wrap;html=1;" vertex="1" parent="1">
          <mxGeometry x="440" y="960" width="120" height="60" as="geometry" />
        </mxCell>
        <mxCell id="eqjqtoSwhp137VtK2heI-15" value="eye" style="whiteSpace=wrap;html=1;fillColor=#ffe6cc;strokeColor=#d79b00;" vertex="1" parent="1">
          <mxGeometry x="110" y="-290" width="120" height="60" as="geometry" />
        </mxCell>
        <mxCell id="eqjqtoSwhp137VtK2heI-36" style="edgeStyle=orthogonalEdgeStyle;rounded=0;orthogonalLoop=1;jettySize=auto;html=1;exitX=0.25;exitY=0;exitDx=0;exitDy=0;entryX=0.25;entryY=1;entryDx=0;entryDy=0;" edge="1" parent="1" target="eqjqtoSwhp137VtK2heI-42">
          <mxGeometry relative="1" as="geometry">
            <mxPoint x="1030" y="102" as="sourcePoint" />
          </mxGeometry>
        </mxCell>
        <mxCell id="eqjqtoSwhp137VtK2heI-37" value="REST API" style="edgeLabel;html=1;align=center;verticalAlign=middle;resizable=0;points=[];" vertex="1" connectable="0" parent="eqjqtoSwhp137VtK2heI-36">
          <mxGeometry x="-0.1048" relative="1" as="geometry">
            <mxPoint x="-30" y="-3" as="offset" />
          </mxGeometry>
        </mxCell>
        <mxCell id="eqjqtoSwhp137VtK2heI-38" style="edgeStyle=orthogonalEdgeStyle;rounded=0;orthogonalLoop=1;jettySize=auto;html=1;exitX=0.75;exitY=1;exitDx=0;exitDy=0;entryX=0.75;entryY=0;entryDx=0;entryDy=0;" edge="1" parent="1" target="eqjqtoSwhp137VtK2heI-54">
          <mxGeometry relative="1" as="geometry">
            <mxPoint x="1090" y="162" as="sourcePoint" />
          </mxGeometry>
        </mxCell>
        <mxCell id="eqjqtoSwhp137VtK2heI-40" style="edgeStyle=orthogonalEdgeStyle;rounded=0;orthogonalLoop=1;jettySize=auto;html=1;exitX=0.75;exitY=1;exitDx=0;exitDy=0;entryX=0.75;entryY=0;entryDx=0;entryDy=0;" edge="1" parent="1" source="eqjqtoSwhp137VtK2heI-42">
          <mxGeometry relative="1" as="geometry">
            <mxPoint x="1090" y="102" as="targetPoint" />
          </mxGeometry>
        </mxCell>
        <mxCell id="eqjqtoSwhp137VtK2heI-41" value="static web app" style="edgeLabel;html=1;align=center;verticalAlign=middle;resizable=0;points=[];" vertex="1" connectable="0" parent="eqjqtoSwhp137VtK2heI-40">
          <mxGeometry x="-0.0397" relative="1" as="geometry">
            <mxPoint x="40" as="offset" />
          </mxGeometry>
        </mxCell>
        <mxCell id="eqjqtoSwhp137VtK2heI-42" value="webpage" style="whiteSpace=wrap;html=1;fillColor=#d5e8d4;strokeColor=#82b366;" vertex="1" parent="1">
          <mxGeometry x="1000" y="-18" width="120" height="60" as="geometry" />
        </mxCell>
        <mxCell id="eqjqtoSwhp137VtK2heI-43" value="" style="edgeStyle=orthogonalEdgeStyle;rounded=0;orthogonalLoop=1;jettySize=auto;html=1;" edge="1" parent="1" source="eqjqtoSwhp137VtK2heI-44" target="eqjqtoSwhp137VtK2heI-55">
          <mxGeometry relative="1" as="geometry" />
        </mxCell>
        <mxCell id="eqjqtoSwhp137VtK2heI-44" value="&lt;div&gt;&lt;span style=&quot;background-color: initial;&quot;&gt;speaker&lt;/span&gt;&lt;br&gt;&lt;/div&gt;" style="whiteSpace=wrap;html=1;fillColor=#d5e8d4;strokeColor=#82b366;" vertex="1" parent="1">
          <mxGeometry x="1000" y="342" width="120" height="60" as="geometry" />
        </mxCell>
        <mxCell id="eqjqtoSwhp137VtK2heI-45" style="edgeStyle=orthogonalEdgeStyle;rounded=0;orthogonalLoop=1;jettySize=auto;html=1;entryX=0;entryY=0.5;entryDx=0;entryDy=0;exitX=0.5;exitY=0;exitDx=0;exitDy=0;" edge="1" parent="1" source="eqjqtoSwhp137VtK2heI-47" target="eqjqtoSwhp137VtK2heI-54">
          <mxGeometry relative="1" as="geometry" />
        </mxCell>
        <mxCell id="eqjqtoSwhp137VtK2heI-46" value="audio in 1" style="edgeLabel;html=1;align=center;verticalAlign=middle;resizable=0;points=[];" vertex="1" connectable="0" parent="eqjqtoSwhp137VtK2heI-45">
          <mxGeometry x="0.1135" relative="1" as="geometry">
            <mxPoint x="12" y="-10" as="offset" />
          </mxGeometry>
        </mxCell>
        <mxCell id="eqjqtoSwhp137VtK2heI-47" value="microphone left&amp;nbsp;" style="whiteSpace=wrap;html=1;fillColor=#d5e8d4;strokeColor=#82b366;" vertex="1" parent="1">
          <mxGeometry x="800" y="342" width="120" height="60" as="geometry" />
        </mxCell>
        <mxCell id="eqjqtoSwhp137VtK2heI-48" style="edgeStyle=orthogonalEdgeStyle;rounded=0;orthogonalLoop=1;jettySize=auto;html=1;entryX=1;entryY=0.5;entryDx=0;entryDy=0;exitX=0.5;exitY=0;exitDx=0;exitDy=0;dashed=1;" edge="1" parent="1" source="eqjqtoSwhp137VtK2heI-50" target="eqjqtoSwhp137VtK2heI-54">
          <mxGeometry relative="1" as="geometry" />
        </mxCell>
        <mxCell id="eqjqtoSwhp137VtK2heI-49" value="audio in 2" style="edgeLabel;html=1;align=center;verticalAlign=middle;resizable=0;points=[];" vertex="1" connectable="0" parent="eqjqtoSwhp137VtK2heI-48">
          <mxGeometry x="0.371" y="-2" relative="1" as="geometry">
            <mxPoint x="-12" y="-8" as="offset" />
          </mxGeometry>
        </mxCell>
        <mxCell id="eqjqtoSwhp137VtK2heI-50" value="microphone right" style="whiteSpace=wrap;html=1;dashed=1;fillColor=#d5e8d4;strokeColor=#82b366;" vertex="1" parent="1">
          <mxGeometry x="1200" y="342" width="120" height="60" as="geometry" />
        </mxCell>
        <mxCell id="eqjqtoSwhp137VtK2heI-51" style="edgeStyle=orthogonalEdgeStyle;rounded=0;orthogonalLoop=1;jettySize=auto;html=1;" edge="1" parent="1" source="eqjqtoSwhp137VtK2heI-54" target="eqjqtoSwhp137VtK2heI-44">
          <mxGeometry relative="1" as="geometry" />
        </mxCell>
        <mxCell id="eqjqtoSwhp137VtK2heI-52" value="audio out" style="edgeLabel;html=1;align=center;verticalAlign=middle;resizable=0;points=[];" vertex="1" connectable="0" parent="eqjqtoSwhp137VtK2heI-51">
          <mxGeometry x="-0.2503" y="-3" relative="1" as="geometry">
            <mxPoint x="33" as="offset" />
          </mxGeometry>
        </mxCell>
        <mxCell id="eqjqtoSwhp137VtK2heI-53" style="edgeStyle=orthogonalEdgeStyle;rounded=0;orthogonalLoop=1;jettySize=auto;html=1;exitX=0.25;exitY=0;exitDx=0;exitDy=0;entryX=0.25;entryY=1;entryDx=0;entryDy=0;" edge="1" parent="1" source="eqjqtoSwhp137VtK2heI-54">
          <mxGeometry relative="1" as="geometry">
            <mxPoint x="1030" y="162" as="targetPoint" />
          </mxGeometry>
        </mxCell>
        <mxCell id="eqjqtoSwhp137VtK2heI-54" value="IOT device" style="whiteSpace=wrap;html=1;fillColor=#d5e8d4;strokeColor=#82b366;" vertex="1" parent="1">
          <mxGeometry x="1000" y="222" width="120" height="60" as="geometry" />
        </mxCell>
        <mxCell id="eqjqtoSwhp137VtK2heI-55" value="nose" style="whiteSpace=wrap;html=1;fillColor=#ffe6cc;strokeColor=#d79b00;" vertex="1" parent="1">
          <mxGeometry x="1000" y="462" width="120" height="60" as="geometry" />
        </mxCell>
        <mxCell id="eqjqtoSwhp137VtK2heI-56" value="" style="edgeStyle=orthogonalEdgeStyle;rounded=0;orthogonalLoop=1;jettySize=auto;html=1;" edge="1" parent="1" source="eqjqtoSwhp137VtK2heI-57" target="eqjqtoSwhp137VtK2heI-47">
          <mxGeometry relative="1" as="geometry" />
        </mxCell>
        <mxCell id="eqjqtoSwhp137VtK2heI-57" value="left ear" style="whiteSpace=wrap;html=1;fillColor=#ffe6cc;strokeColor=#d79b00;" vertex="1" parent="1">
          <mxGeometry x="800" y="462" width="120" height="60" as="geometry" />
        </mxCell>
        <mxCell id="eqjqtoSwhp137VtK2heI-58" value="" style="edgeStyle=orthogonalEdgeStyle;rounded=0;orthogonalLoop=1;jettySize=auto;html=1;dashed=1;" edge="1" parent="1" source="eqjqtoSwhp137VtK2heI-59" target="eqjqtoSwhp137VtK2heI-50">
          <mxGeometry relative="1" as="geometry" />
        </mxCell>
        <mxCell id="eqjqtoSwhp137VtK2heI-59" value="right ear" style="whiteSpace=wrap;html=1;fillColor=#ffe6cc;strokeColor=#d79b00;dashed=1;" vertex="1" parent="1">
          <mxGeometry x="1200" y="462" width="120" height="60" as="geometry" />
        </mxCell>
        <mxCell id="eqjqtoSwhp137VtK2heI-60" value="System Architecture 2" style="text;html=1;align=center;verticalAlign=middle;resizable=0;points=[];autosize=1;strokeColor=none;fillColor=none;fontStyle=1" vertex="1" parent="1">
          <mxGeometry x="900" y="-90" width="140" height="30" as="geometry" />
        </mxCell>
        <mxCell id="eqjqtoSwhp137VtK2heI-62" value="mobile phone" style="whiteSpace=wrap;html=1;fillColor=#f5f5f5;fontColor=#333333;strokeColor=#666666;" vertex="1" parent="1">
          <mxGeometry x="1200" y="80" width="120" height="60" as="geometry" />
        </mxCell>
        <mxCell id="eqjqtoSwhp137VtK2heI-63" value="use case 1:&amp;nbsp;Stranded Deep&lt;div&gt;&lt;span style=&quot;color: rgb(0, 0, 0);&quot;&gt;Priority: 4&lt;/span&gt;&lt;br&gt;&lt;/div&gt;&lt;div&gt;&lt;span style=&quot;color: rgb(0, 0, 0);&quot;&gt;&lt;br&gt;&lt;/span&gt;&lt;/div&gt;&lt;div&gt;internet: no&lt;/div&gt;&lt;div&gt;PC: no&lt;br&gt;mobile phone: no&lt;/div&gt;" style="whiteSpace=wrap;html=1;align=left;" vertex="1" parent="1">
          <mxGeometry y="-800" width="160" height="120" as="geometry" />
        </mxCell>
        <mxCell id="eqjqtoSwhp137VtK2heI-64" value="use case 2: dessert island&lt;div&gt;Priority: 2&lt;br&gt;&lt;div&gt;&lt;br&gt;&lt;/div&gt;&lt;div&gt;internet: no&lt;/div&gt;&lt;div&gt;PC: no&lt;br&gt;mobile phone: yes&lt;/div&gt;&lt;/div&gt;" style="whiteSpace=wrap;html=1;align=left;" vertex="1" parent="1">
          <mxGeometry x="240" y="-800" width="160" height="120" as="geometry" />
        </mxCell>
        <mxCell id="eqjqtoSwhp137VtK2heI-65" value="use case 3: common&lt;div&gt;Priority: 1&lt;/div&gt;&lt;div&gt;&lt;br&gt;&lt;/div&gt;&lt;div&gt;internet: yes&lt;/div&gt;&lt;div&gt;PC: no&lt;br&gt;mobile phone: yes&lt;/div&gt;" style="whiteSpace=wrap;html=1;align=left;" vertex="1" parent="1">
          <mxGeometry x="480" y="-800" width="160" height="120" as="geometry" />
        </mxCell>
        <mxCell id="eqjqtoSwhp137VtK2heI-67" value="use case 4: modern&lt;div&gt;Priority: 3&lt;br&gt;&lt;/div&gt;&lt;div&gt;&lt;br&gt;&lt;/div&gt;&lt;div&gt;internet: yes&lt;/div&gt;&lt;div&gt;PC: yes&lt;br&gt;mobile phone: yes&lt;/div&gt;" style="whiteSpace=wrap;html=1;align=left;" vertex="1" parent="1">
          <mxGeometry x="720" y="-800" width="160" height="120" as="geometry" />
        </mxCell>
        <mxCell id="eqjqtoSwhp137VtK2heI-105" style="edgeStyle=orthogonalEdgeStyle;rounded=0;orthogonalLoop=1;jettySize=auto;html=1;exitX=0.25;exitY=0;exitDx=0;exitDy=0;entryX=0.25;entryY=1;entryDx=0;entryDy=0;" edge="1" parent="1" source="eqjqtoSwhp137VtK2heI-72" target="eqjqtoSwhp137VtK2heI-92">
          <mxGeometry relative="1" as="geometry" />
        </mxCell>
        <mxCell id="eqjqtoSwhp137VtK2heI-72" value="Mobile Phone / PC Browser" style="whiteSpace=wrap;html=1;fillColor=#f5f5f5;strokeColor=#666666;fontColor=#333333;" vertex="1" parent="1">
          <mxGeometry x="-280" y="160" width="120" height="60" as="geometry" />
        </mxCell>
        <mxCell id="eqjqtoSwhp137VtK2heI-76" value="" style="edgeStyle=orthogonalEdgeStyle;rounded=0;orthogonalLoop=1;jettySize=auto;html=1;" edge="1" parent="1" source="eqjqtoSwhp137VtK2heI-77" target="eqjqtoSwhp137VtK2heI-86">
          <mxGeometry relative="1" as="geometry" />
        </mxCell>
        <mxCell id="eqjqtoSwhp137VtK2heI-77" value="&lt;div&gt;&lt;span style=&quot;background-color: initial;&quot;&gt;speaker&lt;/span&gt;&lt;br&gt;&lt;/div&gt;" style="whiteSpace=wrap;html=1;fillColor=#d5e8d4;strokeColor=#82b366;" vertex="1" parent="1">
          <mxGeometry x="-120" y="280" width="120" height="60" as="geometry" />
        </mxCell>
        <mxCell id="eqjqtoSwhp137VtK2heI-78" style="edgeStyle=orthogonalEdgeStyle;rounded=0;orthogonalLoop=1;jettySize=auto;html=1;entryX=0.5;entryY=1;entryDx=0;entryDy=0;exitX=0.5;exitY=0;exitDx=0;exitDy=0;" edge="1" parent="1" source="eqjqtoSwhp137VtK2heI-80" target="eqjqtoSwhp137VtK2heI-72">
          <mxGeometry relative="1" as="geometry">
            <mxPoint x="-200.00000000000023" y="310" as="targetPoint" />
          </mxGeometry>
        </mxCell>
        <mxCell id="eqjqtoSwhp137VtK2heI-79" value="audio in" style="edgeLabel;html=1;align=center;verticalAlign=middle;resizable=0;points=[];" vertex="1" connectable="0" parent="eqjqtoSwhp137VtK2heI-78">
          <mxGeometry x="0.1135" relative="1" as="geometry">
            <mxPoint x="30" y="3" as="offset" />
          </mxGeometry>
        </mxCell>
        <mxCell id="eqjqtoSwhp137VtK2heI-80" value="microphone" style="whiteSpace=wrap;html=1;fillColor=#d5e8d4;strokeColor=#82b366;" vertex="1" parent="1">
          <mxGeometry x="-280" y="280" width="120" height="60" as="geometry" />
        </mxCell>
        <mxCell id="eqjqtoSwhp137VtK2heI-81" style="edgeStyle=orthogonalEdgeStyle;rounded=0;orthogonalLoop=1;jettySize=auto;html=1;exitX=1;exitY=0.5;exitDx=0;exitDy=0;" edge="1" parent="1" source="eqjqtoSwhp137VtK2heI-72" target="eqjqtoSwhp137VtK2heI-77">
          <mxGeometry relative="1" as="geometry">
            <mxPoint x="-140.00000000000023" y="340" as="sourcePoint" />
          </mxGeometry>
        </mxCell>
        <mxCell id="eqjqtoSwhp137VtK2heI-82" value="audio out" style="edgeLabel;html=1;align=center;verticalAlign=middle;resizable=0;points=[];" vertex="1" connectable="0" parent="eqjqtoSwhp137VtK2heI-81">
          <mxGeometry x="-0.2503" y="-3" relative="1" as="geometry">
            <mxPoint x="-11" y="-13" as="offset" />
          </mxGeometry>
        </mxCell>
        <mxCell id="eqjqtoSwhp137VtK2heI-86" value="nose" style="whiteSpace=wrap;html=1;fillColor=#ffe6cc;strokeColor=#d79b00;" vertex="1" parent="1">
          <mxGeometry x="-120" y="400" width="120" height="60" as="geometry" />
        </mxCell>
        <mxCell id="eqjqtoSwhp137VtK2heI-87" value="" style="edgeStyle=orthogonalEdgeStyle;rounded=0;orthogonalLoop=1;jettySize=auto;html=1;" edge="1" parent="1" source="eqjqtoSwhp137VtK2heI-88" target="eqjqtoSwhp137VtK2heI-80">
          <mxGeometry relative="1" as="geometry" />
        </mxCell>
        <mxCell id="eqjqtoSwhp137VtK2heI-88" value="ear" style="whiteSpace=wrap;html=1;fillColor=#ffe6cc;strokeColor=#d79b00;" vertex="1" parent="1">
          <mxGeometry x="-280" y="400" width="120" height="60" as="geometry" />
        </mxCell>
        <mxCell id="eqjqtoSwhp137VtK2heI-89" value="System Architecture 2: Minimum" style="text;html=1;align=center;verticalAlign=middle;resizable=0;points=[];autosize=1;strokeColor=none;fillColor=none;fontStyle=1" vertex="1" parent="1">
          <mxGeometry x="-280" width="200" height="30" as="geometry" />
        </mxCell>
        <mxCell id="eqjqtoSwhp137VtK2heI-106" style="edgeStyle=orthogonalEdgeStyle;rounded=0;orthogonalLoop=1;jettySize=auto;html=1;exitX=0.75;exitY=1;exitDx=0;exitDy=0;entryX=0.75;entryY=0;entryDx=0;entryDy=0;" edge="1" parent="1" source="eqjqtoSwhp137VtK2heI-92" target="eqjqtoSwhp137VtK2heI-72">
          <mxGeometry relative="1" as="geometry" />
        </mxCell>
        <mxCell id="eqjqtoSwhp137VtK2heI-107" value="web app" style="edgeLabel;html=1;align=center;verticalAlign=middle;resizable=0;points=[];" vertex="1" connectable="0" parent="eqjqtoSwhp137VtK2heI-106">
          <mxGeometry x="-0.1358" relative="1" as="geometry">
            <mxPoint x="30" y="5" as="offset" />
          </mxGeometry>
        </mxCell>
        <mxCell id="eqjqtoSwhp137VtK2heI-92" value="Internet" style="whiteSpace=wrap;html=1;fillColor=#d5e8d4;strokeColor=#82b366;" vertex="1" parent="1">
          <mxGeometry x="-280" y="42" width="120" height="60" as="geometry" />
        </mxCell>
        <mxCell id="eqjqtoSwhp137VtK2heI-93" value="Mobile Phone / PC App" style="whiteSpace=wrap;html=1;fillColor=#d5e8d4;strokeColor=#82b366;" vertex="1" parent="1">
          <mxGeometry x="-640" y="160" width="120" height="60" as="geometry" />
        </mxCell>
        <mxCell id="eqjqtoSwhp137VtK2heI-94" value="" style="edgeStyle=orthogonalEdgeStyle;rounded=0;orthogonalLoop=1;jettySize=auto;html=1;" edge="1" parent="1" source="eqjqtoSwhp137VtK2heI-95" target="eqjqtoSwhp137VtK2heI-101">
          <mxGeometry relative="1" as="geometry" />
        </mxCell>
        <mxCell id="eqjqtoSwhp137VtK2heI-95" value="&lt;div&gt;&lt;span style=&quot;background-color: initial;&quot;&gt;speaker&lt;/span&gt;&lt;br&gt;&lt;/div&gt;" style="whiteSpace=wrap;html=1;fillColor=#d5e8d4;strokeColor=#82b366;" vertex="1" parent="1">
          <mxGeometry x="-480" y="280" width="120" height="60" as="geometry" />
        </mxCell>
        <mxCell id="eqjqtoSwhp137VtK2heI-96" style="edgeStyle=orthogonalEdgeStyle;rounded=0;orthogonalLoop=1;jettySize=auto;html=1;entryX=0.5;entryY=1;entryDx=0;entryDy=0;exitX=0.5;exitY=0;exitDx=0;exitDy=0;" edge="1" parent="1" source="eqjqtoSwhp137VtK2heI-98" target="eqjqtoSwhp137VtK2heI-93">
          <mxGeometry relative="1" as="geometry">
            <mxPoint x="-560.0000000000002" y="310" as="targetPoint" />
          </mxGeometry>
        </mxCell>
        <mxCell id="eqjqtoSwhp137VtK2heI-97" value="audio in" style="edgeLabel;html=1;align=center;verticalAlign=middle;resizable=0;points=[];" vertex="1" connectable="0" parent="eqjqtoSwhp137VtK2heI-96">
          <mxGeometry x="0.1135" relative="1" as="geometry">
            <mxPoint x="30" y="3" as="offset" />
          </mxGeometry>
        </mxCell>
        <mxCell id="eqjqtoSwhp137VtK2heI-98" value="microphone" style="whiteSpace=wrap;html=1;fillColor=#d5e8d4;strokeColor=#82b366;" vertex="1" parent="1">
          <mxGeometry x="-640" y="280" width="120" height="60" as="geometry" />
        </mxCell>
        <mxCell id="eqjqtoSwhp137VtK2heI-99" style="edgeStyle=orthogonalEdgeStyle;rounded=0;orthogonalLoop=1;jettySize=auto;html=1;exitX=1;exitY=0.5;exitDx=0;exitDy=0;" edge="1" parent="1" source="eqjqtoSwhp137VtK2heI-93" target="eqjqtoSwhp137VtK2heI-95">
          <mxGeometry relative="1" as="geometry">
            <mxPoint x="-500.0000000000002" y="340" as="sourcePoint" />
          </mxGeometry>
        </mxCell>
        <mxCell id="eqjqtoSwhp137VtK2heI-100" value="audio out" style="edgeLabel;html=1;align=center;verticalAlign=middle;resizable=0;points=[];" vertex="1" connectable="0" parent="eqjqtoSwhp137VtK2heI-99">
          <mxGeometry x="-0.2503" y="-3" relative="1" as="geometry">
            <mxPoint x="-11" y="-13" as="offset" />
          </mxGeometry>
        </mxCell>
        <mxCell id="eqjqtoSwhp137VtK2heI-101" value="nose" style="whiteSpace=wrap;html=1;fillColor=#ffe6cc;strokeColor=#d79b00;" vertex="1" parent="1">
          <mxGeometry x="-480" y="400" width="120" height="60" as="geometry" />
        </mxCell>
        <mxCell id="eqjqtoSwhp137VtK2heI-102" value="" style="edgeStyle=orthogonalEdgeStyle;rounded=0;orthogonalLoop=1;jettySize=auto;html=1;" edge="1" parent="1" source="eqjqtoSwhp137VtK2heI-103" target="eqjqtoSwhp137VtK2heI-98">
          <mxGeometry relative="1" as="geometry" />
        </mxCell>
        <mxCell id="eqjqtoSwhp137VtK2heI-103" value="ear" style="whiteSpace=wrap;html=1;fillColor=#ffe6cc;strokeColor=#d79b00;" vertex="1" parent="1">
          <mxGeometry x="-640" y="400" width="120" height="60" as="geometry" />
        </mxCell>
        <mxCell id="eqjqtoSwhp137VtK2heI-104" value="System Architecture 1: Minimum" style="text;html=1;align=center;verticalAlign=middle;resizable=0;points=[];autosize=1;strokeColor=none;fillColor=none;fontStyle=1" vertex="1" parent="1">
          <mxGeometry x="-640" width="200" height="30" as="geometry" />
        </mxCell>
        <mxCell id="eqjqtoSwhp137VtK2heI-126" style="edgeStyle=orthogonalEdgeStyle;rounded=0;orthogonalLoop=1;jettySize=auto;html=1;exitX=0.75;exitY=0;exitDx=0;exitDy=0;entryX=0.75;entryY=1;entryDx=0;entryDy=0;" edge="1" parent="1" source="eqjqtoSwhp137VtK2heI-108" target="eqjqtoSwhp137VtK2heI-110">
          <mxGeometry relative="1" as="geometry" />
        </mxCell>
        <mxCell id="eqjqtoSwhp137VtK2heI-108" value="Audio interface" style="whiteSpace=wrap;html=1;fillColor=#d5e8d4;strokeColor=#82b366;" vertex="1" parent="1">
          <mxGeometry x="80" y="280" width="120" height="60" as="geometry" />
        </mxCell>
        <mxCell id="eqjqtoSwhp137VtK2heI-109" style="edgeStyle=orthogonalEdgeStyle;rounded=0;orthogonalLoop=1;jettySize=auto;html=1;exitX=0.25;exitY=0;exitDx=0;exitDy=0;entryX=0.25;entryY=1;entryDx=0;entryDy=0;" edge="1" parent="1" source="eqjqtoSwhp137VtK2heI-110" target="eqjqtoSwhp137VtK2heI-124">
          <mxGeometry relative="1" as="geometry" />
        </mxCell>
        <mxCell id="eqjqtoSwhp137VtK2heI-125" style="edgeStyle=orthogonalEdgeStyle;rounded=0;orthogonalLoop=1;jettySize=auto;html=1;exitX=0.25;exitY=1;exitDx=0;exitDy=0;entryX=0.25;entryY=0;entryDx=0;entryDy=0;" edge="1" parent="1" source="eqjqtoSwhp137VtK2heI-110" target="eqjqtoSwhp137VtK2heI-108">
          <mxGeometry relative="1" as="geometry" />
        </mxCell>
        <mxCell id="eqjqtoSwhp137VtK2heI-110" value="Mobile Phone / PC Browser" style="whiteSpace=wrap;html=1;fillColor=#f5f5f5;strokeColor=#666666;fontColor=#333333;" vertex="1" parent="1">
          <mxGeometry x="80" y="160" width="120" height="60" as="geometry" />
        </mxCell>
        <mxCell id="eqjqtoSwhp137VtK2heI-111" value="" style="edgeStyle=orthogonalEdgeStyle;rounded=0;orthogonalLoop=1;jettySize=auto;html=1;" edge="1" parent="1" source="eqjqtoSwhp137VtK2heI-112" target="eqjqtoSwhp137VtK2heI-118">
          <mxGeometry relative="1" as="geometry" />
        </mxCell>
        <mxCell id="eqjqtoSwhp137VtK2heI-112" value="&lt;div&gt;&lt;span style=&quot;background-color: initial;&quot;&gt;speaker&lt;/span&gt;&lt;br&gt;&lt;/div&gt;" style="whiteSpace=wrap;html=1;fillColor=#d5e8d4;strokeColor=#82b366;" vertex="1" parent="1">
          <mxGeometry x="240" y="400.33" width="120" height="60" as="geometry" />
        </mxCell>
        <mxCell id="eqjqtoSwhp137VtK2heI-113" style="edgeStyle=orthogonalEdgeStyle;rounded=0;orthogonalLoop=1;jettySize=auto;html=1;exitX=0.5;exitY=0;exitDx=0;exitDy=0;" edge="1" parent="1" source="eqjqtoSwhp137VtK2heI-115" target="eqjqtoSwhp137VtK2heI-108">
          <mxGeometry relative="1" as="geometry">
            <mxPoint x="159.99999999999977" y="350" as="targetPoint" />
          </mxGeometry>
        </mxCell>
        <mxCell id="eqjqtoSwhp137VtK2heI-114" value="dual audio in" style="edgeLabel;html=1;align=center;verticalAlign=middle;resizable=0;points=[];" vertex="1" connectable="0" parent="eqjqtoSwhp137VtK2heI-113">
          <mxGeometry x="0.1135" relative="1" as="geometry">
            <mxPoint x="40" y="3" as="offset" />
          </mxGeometry>
        </mxCell>
        <mxCell id="eqjqtoSwhp137VtK2heI-115" value="microphone x 2" style="whiteSpace=wrap;html=1;fillColor=#d5e8d4;strokeColor=#82b366;" vertex="1" parent="1">
          <mxGeometry x="80" y="400.33" width="120" height="60" as="geometry" />
        </mxCell>
        <mxCell id="eqjqtoSwhp137VtK2heI-116" style="edgeStyle=orthogonalEdgeStyle;rounded=0;orthogonalLoop=1;jettySize=auto;html=1;exitX=1;exitY=0.5;exitDx=0;exitDy=0;" edge="1" parent="1" source="eqjqtoSwhp137VtK2heI-108" target="eqjqtoSwhp137VtK2heI-112">
          <mxGeometry relative="1" as="geometry">
            <mxPoint x="219.99999999999977" y="380" as="sourcePoint" />
          </mxGeometry>
        </mxCell>
        <mxCell id="eqjqtoSwhp137VtK2heI-117" value="audio out" style="edgeLabel;html=1;align=center;verticalAlign=middle;resizable=0;points=[];" vertex="1" connectable="0" parent="eqjqtoSwhp137VtK2heI-116">
          <mxGeometry x="-0.2503" y="-3" relative="1" as="geometry">
            <mxPoint x="-11" y="-13" as="offset" />
          </mxGeometry>
        </mxCell>
        <mxCell id="eqjqtoSwhp137VtK2heI-118" value="nose" style="whiteSpace=wrap;html=1;fillColor=#ffe6cc;strokeColor=#d79b00;" vertex="1" parent="1">
          <mxGeometry x="240" y="520.3299999999999" width="120" height="60" as="geometry" />
        </mxCell>
        <mxCell id="eqjqtoSwhp137VtK2heI-119" value="" style="edgeStyle=orthogonalEdgeStyle;rounded=0;orthogonalLoop=1;jettySize=auto;html=1;" edge="1" parent="1" source="eqjqtoSwhp137VtK2heI-120" target="eqjqtoSwhp137VtK2heI-115">
          <mxGeometry relative="1" as="geometry" />
        </mxCell>
        <mxCell id="eqjqtoSwhp137VtK2heI-120" value="ear x 2" style="whiteSpace=wrap;html=1;fillColor=#ffe6cc;strokeColor=#d79b00;" vertex="1" parent="1">
          <mxGeometry x="80" y="520.3299999999999" width="120" height="60" as="geometry" />
        </mxCell>
        <mxCell id="eqjqtoSwhp137VtK2heI-121" value="System Architecture 3: Minimum" style="text;html=1;align=center;verticalAlign=middle;resizable=0;points=[];autosize=1;strokeColor=none;fillColor=none;fontStyle=1" vertex="1" parent="1">
          <mxGeometry x="80" width="200" height="30" as="geometry" />
        </mxCell>
        <mxCell id="eqjqtoSwhp137VtK2heI-122" style="edgeStyle=orthogonalEdgeStyle;rounded=0;orthogonalLoop=1;jettySize=auto;html=1;exitX=0.75;exitY=1;exitDx=0;exitDy=0;entryX=0.75;entryY=0;entryDx=0;entryDy=0;" edge="1" parent="1" source="eqjqtoSwhp137VtK2heI-124" target="eqjqtoSwhp137VtK2heI-110">
          <mxGeometry relative="1" as="geometry" />
        </mxCell>
        <mxCell id="eqjqtoSwhp137VtK2heI-123" value="web app" style="edgeLabel;html=1;align=center;verticalAlign=middle;resizable=0;points=[];" vertex="1" connectable="0" parent="eqjqtoSwhp137VtK2heI-122">
          <mxGeometry x="-0.1358" relative="1" as="geometry">
            <mxPoint x="30" y="5" as="offset" />
          </mxGeometry>
        </mxCell>
        <mxCell id="eqjqtoSwhp137VtK2heI-124" value="Internet" style="whiteSpace=wrap;html=1;fillColor=#d5e8d4;strokeColor=#82b366;" vertex="1" parent="1">
          <mxGeometry x="80" y="42" width="120" height="60" as="geometry" />
        </mxCell>
      </root>
    </mxGraphModel>
  </diagram>
</mxfile>
